<?xml version="1.0" encoding="utf-8"?>
<!-- Generator: Adobe Illustrator 16.0.0, SVG Export Plug-In . SVG Version: 6.00 Build 0)  -->
<svg version="1.2" baseProfile="tiny" id="图层_1"
	 xmlns="http://www.w3.org/2000/svg" xmlns:xlink="http://www.w3.org/1999/xlink" x="0px" y="0px" width="612px" height="792px"
	 viewBox="0 0 612 792" xml:space="preserve">
<g>
	<path fill-rule="evenodd" fill="#FFFFFF" d="M-14.345,700.448c0-214.621,0-429.242,0-643.862c214.816,0,429.631,0,644.448,0
		c0,214.621,0,429.241,0,643.862C415.286,700.448,200.471,700.448-14.345,700.448z M312.575,669.297
		c76.228-2.287,144.813-30.155,200.631-86.809c55.792-56.629,84.072-125.153,84.072-204.894
		C597.281,217.624,466.928,91.347,314.513,88.19c-87.73-1.817-162.073,29.988-221.676,94.014
		c-48.96,52.594-74.768,115.793-76.676,187.768c-2.281,86.002,28.406,159.386,90.288,218.71
		C162.857,642.76,231.254,668.855,312.575,669.297z"/>
	<path fill-rule="evenodd" d="M312.575,669.297c-81.321-0.441-149.718-26.537-206.127-80.615
		c-61.882-59.324-92.568-132.708-90.288-218.71c1.909-71.974,27.716-135.174,76.676-187.768
		c59.603-64.026,133.946-95.831,221.676-94.014c152.415,3.156,282.769,129.433,282.766,289.404
		c0,79.74-28.28,148.265-84.072,204.894C457.389,639.142,388.803,667.01,312.575,669.297z M308.526,92.833
		c-156.69-1-290.648,125.189-287.713,292.138c1.308,74.404,28.445,139.663,81.127,192.68
		c71.207,71.662,157.964,98.559,257.108,81.744c64.824-10.994,119.395-42.921,162.647-92.543
		c47.41-54.393,71.12-118.071,70.835-190.501C591.925,221.851,466.088,93.83,308.526,92.833z"/>
	<path fill-rule="evenodd" fill="#FFFFFF" d="M308.526,92.833c157.562,0.997,283.398,129.018,284.005,283.519
		c0.285,72.43-23.425,136.108-70.835,190.501c-43.253,49.622-97.823,81.549-162.647,92.543
		c-99.144,16.814-185.901-10.082-257.108-81.744c-52.683-53.018-79.82-118.276-81.127-192.68
		C17.878,218.022,151.836,91.833,308.526,92.833z M59.808,366.451c0.022,0.333,0.045,0.667,0.068,1
		c1.245,0.225,2.49,0.649,3.734,0.644c13.853-0.053,27.705-0.263,41.558-0.255c26.651,0.015,53.303,0.237,79.955,0.186
		c13.194-0.026,9.437,1.856,18.155-7.302c6.444-6.77,13.106-13.333,19.684-19.977c4.793-4.841,9.39-9.906,14.459-14.44
		c8.42-7.532,16.833-15.139,25.857-21.905c6.412-4.808,13.485-9.093,20.866-12.168c11.279-4.699,23.005-6.505,35.419-3.122
		c10.273,2.799,19.543,7.21,27.98,13.404c6.969,5.115,13.658,10.643,20.195,16.308c5.953,5.159,11.589,10.693,17.198,16.23
		c0.616,0.609,0.409,2.408,0.087,3.51c-0.31,1.054-1.25,1.93-1.942,2.862c-8.76,11.802-17.412,23.685-26.327,35.369
		c-6.146,8.056-12.595,15.884-19.018,23.726c-7.786,9.509-15.779,18.828-25.396,26.605c-3.985,3.224-8.36,4.501-13.323,3.017
		c-2.603-0.778-5.313-1.513-7.636-2.853c-6.735-3.884-13.284-8.088-19.949-12.096c-0.778-0.469-1.821-0.497-2.741-0.729
		c0.145,0.89,0.063,1.904,0.47,2.649c2.846,5.197,5.744,10.368,8.722,15.49c3.788,6.518,8.088,12.646,13.845,17.631
		c6.039,5.229,14.235,5.55,21.236,1.749c8.207-4.456,13.322-11.686,18.005-19.139c9.935-15.81,19.291-31.981,28.971-47.952
		c4.732-7.807,9.687-15.48,14.489-23.244c4.094-6.617,8.091-13.294,12.182-19.913c1.574-2.547,2.747-2.641,4.746-0.563
		c7.574,7.869,15.157,15.729,22.707,23.622c1.943,2.033,3.919,3.712,7.054,3.388c2.905-0.301,5.844-0.386,8.767-0.376
		c18.739,0.057,37.478,0.195,56.216,0.249c21.083,0.06,42.166,0.072,63.249,0.046c1.178-0.001,2.354-0.533,3.533-0.817
		c-0.609-1.139-0.973-2.542-1.865-3.376c-10.458-9.78-21.02-19.449-31.507-29.199c-11.705-10.882-23.357-21.82-35.04-32.726
		c-18.311-17.093-36.629-34.178-54.941-51.27c-11.689-10.911-23.384-21.814-35.056-32.745c-9.534-8.929-19.007-17.924-28.563-26.829
		c-7.557-7.039-15.232-13.951-22.796-20.983c-8.287-7.703-16.426-15.567-24.788-23.188c-4.486-4.089-14.928-5.34-19.853-1.908
		c-5.146,3.585-9.793,7.936-14.411,12.219c-16.795,15.58-33.472,31.287-50.222,46.916c-11.399,10.637-22.839,21.228-34.27,31.83
		c-10.222,9.48-20.472,18.931-30.68,28.427c-11.195,10.415-22.35,20.874-33.534,31.3c-7.56,7.047-15.157,14.054-22.707,21.111
		c-13.103,12.25-26.186,24.523-39.27,36.793C68.845,357.909,64.331,362.186,59.808,366.451z M550.259,392.397
		c-0.197-0.443-0.394-0.887-0.59-1.33c-1.792,0-3.584-0.001-5.375,0c-40.319,0.017-80.639,0.131-120.957-0.082
		c-4.573-0.024-7.647,1.738-10.484,4.631c-8.224,8.387-16.366,16.853-24.534,25.293c-1.886,1.949-3.662,4.014-5.642,5.859
		c-2.979,2.776-6.063,5.44-9.154,8.094c-7.865,6.755-15.523,13.78-23.729,20.093c-4.561,3.509-10.204,5.571-15.086,8.712
		c-5.512,3.545-11.582,5.547-17.869,6.41c-8.757,1.201-17.636,1.854-26.204-1.577c-4.24-1.697-8.757-2.826-12.776-4.924
		c-8.876-4.636-17.134-10.293-24.894-16.646c-1.882-1.541-3.838-3.006-5.604-4.673c-7.121-6.723-14.21-13.481-21.245-20.293
		c-1.954-1.893-3.649-4.049-5.522-6.027c-5.996-6.336-12.021-12.646-18.035-18.965c-3.41-3.584-6.884-6.074-12.522-6.013
		c-29.577,0.323-59.159,0.165-88.74,0.079c-3.468-0.01-6.931-0.663-10.404-0.9c-1.741-0.119-3.5,0.041-5.251,0.048
		c-6.54,0.026-13.08,0.029-19.619,0.075c-1.102,0.008-2.202,0.188-4.129,0.366c6.237,5.923,11.704,11.087,17.139,16.284
		c3.722,3.559,7.346,7.221,11.107,10.737c8.861,8.284,17.767,16.521,26.676,24.754c4.499,4.157,9.037,8.272,13.568,12.396
		c4.528,4.119,9.123,8.167,13.591,12.35c4.882,4.569,9.603,9.311,14.482,13.884c6.297,5.902,12.694,11.697,19.022,17.565
		c3.995,3.704,7.957,7.443,11.906,11.194c3.03,2.878,6.015,5.802,9.023,8.7c3.215,3.098,6.349,6.287,9.682,9.254
		c2.809,2.502,6.032,4.552,8.756,7.134c7.39,7.009,14.571,14.236,21.915,21.296c6.917,6.65,13.934,13.197,20.913,19.783
		c0.353,0.333,0.782,0.586,1.145,0.91c3.409,3.048,6.846,6.066,10.206,9.166c2.559,2.36,4.942,4.913,7.542,7.226
		c3.968,3.529,8.416,6.592,12.003,10.461c4.708,5.078,9.657,9.115,17.009,8.446c2.425-0.222,5.099-0.472,7.128-1.635
		c2.996-1.717,5.657-4.112,8.217-6.481c7.983-7.391,15.84-14.919,23.771-22.366c5.599-5.257,11.215-10.496,16.878-15.684
		c1.381-1.264,3.086-2.175,4.455-3.449c2.951-2.748,5.725-5.687,8.672-8.438c4.599-4.293,9.343-8.43,13.909-12.755
		c4.409-4.178,8.671-8.51,12.998-12.772c2.075-2.043,4.092-4.151,6.246-6.107c3.513-3.188,7.196-6.19,10.664-9.426
		c6.809-6.354,13.482-12.85,20.278-19.218c5.952-5.579,12.003-11.054,17.994-16.592c6.347-5.869,12.708-11.723,19-17.649
		c4.526-4.264,8.884-8.707,13.437-12.94c4.531-4.212,9.431-8.047,13.767-12.444c4.781-4.849,9.887-9.307,14.939-13.845
		c3.448-3.097,6.627-6.492,10.046-9.623c4.385-4.014,8.912-7.873,13.336-11.845C545.674,396.779,547.946,394.566,550.259,392.397z
		 M288.378,334.386c0.092,0.347,0.184,0.693,0.275,1.039c1.324,0.103,2.647,0.283,3.971,0.293c3.021,0.021,6.057-0.238,9.06-0.02
		c3.609,0.261,4.879,2.003,4.015,5.494c-1.752,7.078-3.631,14.126-5.575,21.153c-3.581,12.945-7.241,25.867-10.878,38.796
		c-0.841,2.989-1.918,5.928-2.529,8.962c-0.609,3.023,0.131,3.775,3.105,3.789c5.562,0.026,11.125,0.022,16.687-0.045
		c3.881-0.047,4.862-0.995,5.534-4.932c1.1-6.436,2.168-12.876,3.337-19.298c2.109-11.587,4.272-23.165,6.435-34.742
		c0.982-5.264,2.041-10.515,3.02-15.78c1.298-6.984,2.63-13.963,3.781-20.972c0.426-2.591-0.344-3.014-2.718-1.894
		c-10.722,5.059-21.449,10.105-32.154,15.2C291.902,332.307,290.164,333.396,288.378,334.386z M314.798,113.326
		c-0.001-0.086-0.001-0.173-0.001-0.259c-1.938,0-3.877,0.029-5.813-0.009c-1.626-0.033-3.312-0.083-3.439,2.107
		c-0.125,2.13,1.235,2.84,3.171,2.862c4.171,0.049,8.342,0.113,12.512,0.224c1.668,0.044,2.905-0.356,3.014-2.283
		c0.109-1.931-1.129-2.568-2.75-2.623C319.262,113.27,317.028,113.326,314.798,113.326z M270.091,120.501
		c3.62-0.536,7.506-0.959,11.309-1.769c1.133-0.241,2.783-1.484,2.887-2.414c0.218-1.965-1.607-2.518-3.27-2.321
		c-4.442,0.523-8.879,1.133-13.283,1.906c-0.621,0.109-1.434,1.289-1.496,2.028C266.014,120.605,268.113,120.362,270.091,120.501z
		 M395.502,623.936c-4.872,1.65-9.276,3.138-13.676,4.643c-0.268,0.092-0.625,0.268-0.707,0.49
		c-0.333,0.904-1.078,2.216-0.732,2.684c0.552,0.749,2.001,1.501,2.811,1.284c4.319-1.157,8.602-2.497,12.787-4.067
		c0.84-0.315,1.625-1.894,1.641-2.902C397.637,625.375,396.273,624.661,395.502,623.936z M47.53,317.75
		c0.652,0.953,1.25,2.249,2.248,3.032c0.3,0.235,2.305-0.778,2.526-1.518c1.308-4.377,2.417-8.822,3.334-13.297
		c0.153-0.747-0.919-2.451-1.498-2.486c-1.001-0.06-2.727,0.618-2.982,1.377C49.801,308.896,48.807,313.056,47.53,317.75z
		 M442.171,606.978c1.208-0.561,2.029-0.837,2.738-1.289c3.011-1.914,5.918-4,9.002-5.785c1.971-1.14,2.886-2.597,1.554-4.448
		c-1.242-1.728-2.844-0.771-4.322,0.21c-3.213,2.133-6.562,4.063-9.723,6.265c-0.757,0.526-1.478,1.869-1.345,2.698
		C440.212,605.487,441.405,606.178,442.171,606.978z M348.11,115.923c-0.448,0.358-1.541,1.229-2.634,2.102
		c0.916,0.923,1.692,2.403,2.771,2.671c4.151,1.032,8.386,1.78,12.626,2.367c0.758,0.105,2.381-1.044,2.39-1.633
		c0.016-1.019-0.744-2.781-1.484-2.958C357.628,117.474,353.387,116.859,348.11,115.923z M571.848,393.737c0.149,0,0.298,0,0.446,0
		c0-2.142,0.207-4.314-0.091-6.414c-0.14-0.98-1.256-1.821-1.931-2.725c-0.845,0.751-2.339,1.434-2.427,2.265
		c-0.468,4.446-0.71,8.928-0.712,13.398c0,0.835,1.446,1.671,2.226,2.507c0.829-0.867,2.201-1.638,2.376-2.621
		C572.104,398.069,571.848,395.88,571.848,393.737z M149.057,164.983c-1.215,0.692-2.221,1.119-3.056,1.767
		c-2.914,2.26-5.887,4.469-8.574,6.979c-0.822,0.768-1.464,2.795-1.022,3.627c0.917,1.728,2.675,1.132,4.013,0.09
		c2.225-1.732,4.382-3.553,6.571-5.333c1.271-1.032,2.669-1.945,3.759-3.141c0.405-0.445,0.339-1.651,0.044-2.311
		C150.481,165.97,149.639,165.517,149.057,164.983z M41.541,353.27c0.084,0.016,0.169,0.031,0.254,0.046
		c-0.097,1.064-0.256,2.128-0.277,3.194c-0.036,1.814,0.861,3.273,2.676,3.027c0.884-0.12,2.058-1.632,2.251-2.672
		c0.708-3.807,0.992-7.69,1.577-11.523c0.268-1.756-0.171-2.864-1.958-3.252c-1.887-0.409-2.691,0.64-2.984,2.305
		C42.56,347.352,42.053,350.311,41.541,353.27z M569.089,334.763c-0.914-5.151-1.507-9.28-2.476-13.319
		c-0.206-0.856-1.783-1.384-2.73-2.063c-0.615,0.924-1.844,1.922-1.743,2.761c0.495,4.133,1.208,8.255,2.15,12.31
		c0.269,1.157,1.564,2.076,2.389,3.103C567.656,336.422,568.634,335.29,569.089,334.763z M243.305,120.246
		c-4.545,1.276-8.549,2.378-12.534,3.544c-0.632,0.185-1.465,0.532-1.701,1.039c-0.417,0.895-0.9,2.231-0.515,2.9
		c0.425,0.74,1.935,1.486,2.728,1.282c4.1-1.059,8.16-2.315,12.141-3.759c0.871-0.315,1.914-1.704,1.874-2.55
		C245.254,121.832,243.984,121.021,243.305,120.246z M568.557,425.764c-0.64-0.602-1.526-1.965-2.078-1.841
		c-1.103,0.248-2.638,1.134-2.909,2.069c-1.154,3.993-2.089,8.074-2.7,12.183c-0.16,1.077,1.128,2.368,1.751,3.563
		c0.962-0.778,2.509-1.392,2.782-2.364C566.61,435.09,567.451,430.702,568.557,425.764z M548.762,488.289
		c-0.619-0.659-1.222-1.814-2.085-2.063c-0.753-0.216-2.298,0.337-2.635,0.991c-2.134,4.144-4.081,8.387-5.943,12.661
		c-0.255,0.586,0.06,1.922,0.532,2.205c0.687,0.41,2.042,0.558,2.603,0.137c1.04-0.781,1.866-1.969,2.504-3.14
		c1.441-2.645,2.729-5.373,4.043-8.085C548.114,490.307,548.311,489.551,548.762,488.289z M104.237,212.986
		c-0.481-0.627-0.999-1.897-1.574-1.925c-1.073-0.05-2.568,0.297-3.203,1.054c-2.61,3.112-4.841,6.542-7.46,9.647
		c-1.402,1.663-0.886,2.865,0.299,4.008c1.555,1.5,2.682,0.215,3.587-0.94c2.562-3.272,5.055-6.597,7.539-9.928
		C103.758,214.457,103.879,213.854,104.237,212.986z M346.147,641.266c0.037,0.16,0.074,0.319,0.111,0.479
		c3.769-0.877,7.573-1.63,11.278-2.724c0.847-0.251,1.347-1.677,2.007-2.562c-1.02-0.709-2.114-2.109-3.046-2.009
		c-4.135,0.45-8.258,1.186-12.301,2.165c-0.917,0.223-1.497,1.835-2.232,2.808c0.909,0.657,1.778,1.387,2.749,1.933
		C345.065,641.552,345.662,641.309,346.147,641.266z M170.257,155.596c0.834-0.182,1.267-0.175,1.586-0.361
		c3.939-2.299,7.907-4.555,11.737-7.023c0.547-0.353,0.832-2.35,0.51-2.583c-0.964-0.701-2.627-1.582-3.416-1.188
		c-3.899,1.946-7.667,4.186-11.322,6.565c-0.683,0.445-0.962,2.043-0.828,3.027C168.615,154.684,169.773,155.189,170.257,155.596z
		 M487.36,573.013c-0.058-1.992-2.463-3.268-3.848-2.177c-3.498,2.755-6.978,5.557-10.203,8.616
		c-0.731,0.693-0.399,2.507-0.557,3.805c1.339-0.124,3.053,0.236,3.949-0.458c3.289-2.548,6.32-5.432,9.415-8.226
		C486.666,574.077,487.053,573.404,487.36,573.013z M157.147,597.855c0.865-0.77,2.065-1.354,2.075-1.956
		c0.015-0.989-0.475-2.319-1.223-2.927c-3.011-2.447-6.257-4.603-9.304-7.007c-1.577-1.244-3.135-1.455-4.389-0.003
		c-1.379,1.598-0.105,2.913,1.153,3.912c1.976,1.568,3.997,3.088,6.077,4.516C153.269,595.58,155.112,596.608,157.147,597.855z
		 M193.896,614.565c-0.749-0.575-1.278-1.09-1.9-1.439c-3.811-2.145-7.683-4.182-11.448-6.401c-1.898-1.118-2.604,0.046-3.46,1.329
		c-1.05,1.576-0.435,2.378,1.092,3.157c3.798,1.939,7.497,4.072,11.294,6.017c0.648,0.331,1.804,0.437,2.327,0.072
		C192.615,616.733,193.088,615.677,193.896,614.565z M285.078,638.671c-0.001-0.041-0.003-0.082-0.005-0.124
		c-2.036-0.149-4.08-0.47-6.104-0.373c-0.971,0.046-1.904,0.881-2.855,1.359c0.679,1.033,1.227,2.2,2.089,3.047
		c0.462,0.453,1.461,0.441,2.227,0.488c3.495,0.217,6.995,0.337,10.487,0.582c1.716,0.121,2.965-0.262,2.964-2.227
		c0-1.906-1.057-2.802-2.973-2.762C288.965,638.702,287.021,638.671,285.078,638.671z M47.678,414.372
		c0.146-0.022,0.293-0.045,0.44-0.067c-0.146-1.64,0.042-3.417-0.557-4.87c-0.384-0.934-1.876-1.767-2.967-1.907
		c-0.576-0.075-2.001,1.485-1.938,2.212c0.377,4.345,0.915,8.694,1.783,12.964c0.209,1.03,1.926,2.547,2.843,2.476
		c1.97-0.153,1.964-2.046,1.686-3.672C48.559,419.125,48.11,416.75,47.678,414.372z M78,506.286
		c-2.399,0.399-3.33,1.482-2.397,3.144c2.41,4.293,4.98,8.5,7.667,12.623c0.275,0.423,2.056,0.418,2.654-0.032
		c1.472-1.108,1.259-2.587,0.272-4.113c-1.945-3.009-3.695-6.145-5.671-9.132C79.834,507.732,78.714,506.974,78,506.286z
		 M522.198,223.892c-2.121-0.063-3.269,1.558-2.43,3.204c1.138,2.229,2.568,4.313,3.932,6.422c1.259,1.947,2.473,3.951,3.977,5.697
		c0.423,0.492,2.109,0.554,2.657,0.115c0.694-0.558,1.423-2.199,1.095-2.729c-2.441-3.945-5.116-7.747-7.783-11.548
		C523.239,224.475,522.503,224.129,522.198,223.892z M252.92,639.024c0.608-0.741,1.882-1.621,1.959-2.596
		c0.064-0.81-1.131-2.258-2.026-2.511c-3.902-1.102-7.879-1.982-11.875-2.68c-0.905-0.157-1.995,0.739-2.999,1.15
		c0.527,1.108,0.822,2.951,1.621,3.204C243.738,636.903,248.005,637.808,252.92,639.024z M559.895,297.15
		c-0.702-2.067-1.248-3.71-1.817-5.346c-0.959-2.755-1.761-5.586-3.006-8.206c-0.369-0.777-1.989-1.217-3.067-1.281
		c-0.469-0.029-1.596,1.466-1.439,1.956c1.475,4.628,3.083,9.22,4.886,13.729c0.229,0.576,1.837,0.941,2.716,0.808
		C558.847,298.708,559.387,297.673,559.895,297.15z M81.8,245.254c-0.618-0.781-1.243-2.082-1.678-2.021
		c-1.14,0.159-2.684,0.619-3.203,1.48c-2.149,3.568-4.104,7.271-5.834,11.061c-0.421,0.923,0.287,2.361,0.476,3.562
		c1.202-0.51,2.887-0.686,3.514-1.593c1.867-2.701,3.344-5.674,4.917-8.572C80.625,248.005,81.112,246.758,81.8,245.254z
		 M422.914,144.76c0.938-0.577,2.136-0.906,2.391-1.587c0.245-0.659-0.361-1.752-0.82-2.52c-0.327-0.546-0.976-0.981-1.574-1.273
		c-3.395-1.654-6.754-3.423-10.276-4.752c-0.935-0.353-2.938,0.348-3.512,1.198c-1.081,1.6-0.11,2.882,1.752,3.46
		c0.916,0.284,1.745,0.84,2.629,1.24C416.595,141.927,419.692,143.313,422.914,144.76z M529.623,522.459
		c-0.419-0.527-0.807-1.464-1.453-1.706c-0.683-0.255-2.006-0.153-2.372,0.319c-2.906,3.746-5.769,7.542-8.33,11.525
		c-0.422,0.655,0.542,2.405,1.215,3.417c0.168,0.252,2.097-0.103,2.533-0.688c2.72-3.641,5.255-7.42,7.821-11.174
		C529.299,523.771,529.357,523.251,529.623,522.459z M496.488,193.412c-0.758,0.679-1.794,1.166-1.89,1.796
		c-0.143,0.938,0.073,2.24,0.668,2.931c2.78,3.229,5.679,6.366,8.694,9.376c0.566,0.564,2.172,0.844,2.739,0.45
		c0.646-0.448,1.003-1.848,0.87-2.743c-0.145-0.97-0.874-1.942-1.563-2.725c-2.179-2.475-4.415-4.903-6.723-7.257
		C498.578,194.521,497.567,194.102,496.488,193.412z M99.791,538.743c-0.905,0.587-2.207,0.978-2.509,1.756
		c-0.294,0.757,0.172,2.123,0.76,2.856c2.563,3.191,5.393,6.172,7.917,9.392c1.282,1.635,2.684,1.365,3.718,0.361
		c0.541-0.525,0.528-2.4,0.007-3.107c-2.535-3.447-5.308-6.72-8.048-10.012C101.234,539.506,100.56,539.249,99.791,538.743z
		 M459.577,162.044c-0.723-0.808-1.229-1.639-1.962-2.145c-3.192-2.205-6.46-4.301-9.68-6.468c-1.262-0.849-2.574-1.867-3.723-0.053
		c-1.048,1.656-0.623,3.139,1.078,4.239c3.344,2.162,6.625,4.424,10.024,6.495c0.709,0.432,1.936,0.505,2.704,0.197
		C458.655,164.054,458.967,162.991,459.577,162.044z M49.939,448.062c1.455,4.788,2.729,9.147,4.145,13.461
		c0.203,0.619,1,1.219,1.659,1.479c1.817,0.722,3.512-0.398,3.049-2.086c-1.229-4.476-2.568-8.933-4.157-13.29
		c-0.261-0.716-2.002-1.178-3.069-1.199C50.985,446.416,50.383,447.584,49.939,448.062z M572.262,361.526
		c0.009-0.417,0.017-0.833,0.025-1.25c-0.94-0.597-2.02-1.809-2.788-1.637c-0.986,0.222-1.724,1.556-2.568,2.411
		c0.922,0.787,1.755,1.989,2.799,2.215C570.415,363.413,571.407,362.155,572.262,361.526z M125.974,573.893
		c1.316-1.403,3.052-2.558,2.882-3.229c-0.287-1.137-1.657-2.247-2.837-2.77c-0.384-0.17-2.259,1.531-2.261,2.378
		C123.756,571.33,124.984,572.391,125.974,573.893z M218.678,625.479c-1.808-1.294-2.846-2.584-3.928-2.621
		c-0.733-0.026-2.179,1.76-2.108,2.64c0.067,0.846,1.593,1.994,2.637,2.199C216.012,627.841,217.012,626.628,218.678,625.479z
		 M318.135,644.907c1.03-1.502,2.282-2.537,2.141-3.319c-0.184-1.011-1.48-1.82-2.298-2.716c-0.856,1.004-2.084,1.902-2.411,3.057
		C315.404,642.499,316.902,643.54,318.135,644.907z M209.232,135.161c-1.686-1.087-2.689-2.245-3.518-2.131
		c-0.9,0.125-2.181,1.369-2.28,2.241c-0.086,0.753,1.327,2.409,1.946,2.348C206.458,137.511,207.435,136.389,209.232,135.161z
		 M118.971,190.461c-1.083,1.375-2.49,2.428-2.334,3.137c0.24,1.092,1.551,1.949,2.408,2.906c0.896-1.038,2.134-1.964,2.529-3.167
		C121.744,192.82,120.167,191.729,118.971,190.461z M62.821,484.229c-0.06,0.446-0.12,0.892-0.18,1.339
		c1.26,0.793,2.451,1.805,3.824,2.246c0.405,0.13,1.794-1.308,1.876-2.112c0.074-0.73-0.952-2.177-1.609-2.248
		C65.472,483.316,64.129,483.928,62.821,484.229z M481.098,177.991c-1.687-1.079-2.751-2.229-3.321-2.021
		c-1.024,0.372-1.752,1.561-2.604,2.408c0.796,0.789,1.612,2.227,2.383,2.203C478.503,180.552,479.413,179.303,481.098,177.991z
		 M43.697,379.975c-1.279,1.725-2.539,2.697-2.413,3.43c0.176,1.018,1.392,1.856,2.162,2.771c0.813-0.771,2.186-1.477,2.288-2.333
		C45.843,382.922,44.759,381.86,43.697,379.975z M545.521,260.329c-1.411-1.259-2.594-2.806-3.039-2.617
		c-1.151,0.489-1.976,1.745-2.931,2.694c0.87,0.718,1.707,1.948,2.621,2.007C543.056,262.472,544.02,261.326,545.521,260.329z
		 M504.011,551.185c-0.436-0.02-0.87-0.038-1.306-0.058c-0.775,1.075-2.066,2.114-2.146,3.238c-0.053,0.753,1.505,1.928,2.56,2.313
		c0.492,0.18,2.162-1.084,2.147-1.664C505.233,553.729,504.474,552.46,504.011,551.185z M65.476,280.815
		c-1.838-1.182-2.91-2.405-3.845-2.309c-0.804,0.083-1.978,1.66-1.999,2.598c-0.015,0.704,1.5,1.944,2.409,2.018
		C62.87,283.189,63.801,282.008,65.476,280.815z M419.219,619.958c1.171-1.522,2.445-2.459,2.37-3.27
		c-0.091-0.972-1.333-1.836-2.076-2.747c-0.902,0.895-2.2,1.66-2.552,2.734C416.759,617.291,418.098,618.409,419.219,619.958z
		 M559.208,463.986c-1.588-0.921-2.605-1.986-3.509-1.896c-0.841,0.084-1.56,1.398-2.332,2.171c0.902,0.869,1.698,2.187,2.748,2.438
		C556.738,466.848,557.764,465.314,559.208,463.986z M389.788,127.619c-1.534-1.143-2.545-2.456-3.308-2.326
		c-1.004,0.171-1.813,1.479-2.707,2.297c0.96,0.761,1.832,1.89,2.911,2.146C387.334,129.891,388.306,128.685,389.788,127.619z"/>
	<path fill-rule="evenodd" d="M59.808,366.451c4.523-4.266,9.038-8.542,13.573-12.795c13.084-12.271,26.167-24.543,39.27-36.793
		c7.55-7.058,15.147-14.064,22.707-21.111c11.184-10.427,22.339-20.885,33.534-31.3c10.208-9.496,20.458-18.946,30.68-28.427
		c11.431-10.602,22.871-21.193,34.27-31.83c16.75-15.629,33.427-31.335,50.222-46.916c4.618-4.283,9.265-8.634,14.411-12.219
		c4.925-3.432,15.367-2.181,19.853,1.908c8.362,7.62,16.501,15.484,24.788,23.188c7.563,7.032,15.239,13.944,22.796,20.983
		c9.557,8.905,19.029,17.9,28.563,26.829c11.672,10.93,23.366,21.834,35.056,32.745c18.313,17.091,36.631,34.176,54.941,51.27
		c11.683,10.906,23.335,21.844,35.04,32.726c10.487,9.75,21.049,19.419,31.507,29.199c0.893,0.835,1.256,2.238,1.865,3.376
		c-1.179,0.285-2.355,0.816-3.533,0.817c-21.083,0.026-42.166,0.014-63.249-0.046c-18.738-0.053-37.477-0.192-56.216-0.249
		c-2.923-0.009-5.861,0.075-8.767,0.376c-3.135,0.325-5.11-1.355-7.054-3.388c-7.55-7.893-15.133-15.753-22.707-23.622
		c-1.999-2.078-3.172-1.983-4.746,0.563c-4.091,6.619-8.088,13.296-12.182,19.913c-4.803,7.764-9.757,15.437-14.489,23.244
		c-9.68,15.971-19.036,32.143-28.971,47.952c-4.683,7.453-9.798,14.683-18.005,19.139c-7.001,3.801-15.197,3.48-21.236-1.749
		c-5.757-4.985-10.057-11.113-13.845-17.631c-2.978-5.122-5.875-10.293-8.722-15.49c-0.408-0.745-0.326-1.76-0.47-2.649
		c0.92,0.232,1.963,0.261,2.741,0.729c6.665,4.008,13.214,8.212,19.949,12.096c2.323,1.34,5.033,2.074,7.636,2.853
		c4.963,1.484,9.338,0.207,13.323-3.017c9.616-7.777,17.609-17.097,25.396-26.605c6.423-7.841,12.871-15.669,19.018-23.726
		c8.915-11.684,17.567-23.567,26.327-35.369c0.692-0.932,1.633-1.809,1.942-2.862c0.322-1.102,0.529-2.901-0.087-3.51
		c-5.609-5.538-11.245-11.071-17.198-16.23c-6.537-5.665-13.227-11.192-20.195-16.308c-8.438-6.194-17.707-10.605-27.98-13.404
		c-12.414-3.383-24.14-1.577-35.419,3.122c-7.381,3.075-14.455,7.36-20.866,12.168c-9.024,6.766-17.437,14.374-25.857,21.905
		c-5.069,4.534-9.666,9.599-14.459,14.44c-6.577,6.644-13.239,13.207-19.684,19.977c-8.718,9.158-4.961,7.276-18.155,7.302
		c-26.651,0.052-53.303-0.17-79.955-0.186c-13.853-0.008-27.705,0.202-41.558,0.255c-1.244,0.005-2.489-0.419-3.734-0.644
		C59.853,367.118,59.83,366.785,59.808,366.451z"/>
	<path fill-rule="evenodd" d="M550.259,392.397c-2.313,2.169-4.585,4.382-6.944,6.5c-4.424,3.972-8.951,7.831-13.336,11.845
		c-3.419,3.131-6.598,6.526-10.046,9.623c-5.053,4.538-10.158,8.996-14.939,13.845c-4.336,4.397-9.235,8.232-13.767,12.444
		c-4.553,4.233-8.91,8.677-13.437,12.94c-6.292,5.927-12.653,11.78-19,17.649c-5.991,5.538-12.042,11.013-17.994,16.592
		c-6.796,6.368-13.47,12.864-20.278,19.218c-3.468,3.235-7.151,6.237-10.664,9.426c-2.154,1.956-4.171,4.064-6.246,6.107
		c-4.327,4.263-8.589,8.595-12.998,12.772c-4.566,4.325-9.311,8.462-13.909,12.755c-2.947,2.752-5.721,5.69-8.672,8.438
		c-1.369,1.274-3.074,2.186-4.455,3.449c-5.663,5.188-11.279,10.427-16.878,15.684c-7.932,7.447-15.788,14.976-23.771,22.366
		c-2.56,2.369-5.221,4.765-8.217,6.481c-2.029,1.163-4.703,1.413-7.128,1.635c-7.352,0.669-12.3-3.368-17.009-8.446
		c-3.588-3.869-8.035-6.932-12.003-10.461c-2.599-2.313-4.983-4.865-7.542-7.226c-3.36-3.1-6.797-6.118-10.206-9.166
		c-0.363-0.324-0.792-0.577-1.145-0.91c-6.979-6.586-13.995-13.133-20.913-19.783c-7.343-7.06-14.524-14.287-21.915-21.296
		c-2.724-2.582-5.947-4.632-8.756-7.134c-3.333-2.967-6.466-6.156-9.682-9.254c-3.009-2.898-5.994-5.822-9.023-8.7
		c-3.949-3.751-7.912-7.49-11.906-11.194c-6.329-5.868-12.726-11.663-19.022-17.565c-4.879-4.573-9.6-9.314-14.482-13.884
		c-4.468-4.183-9.063-8.23-13.591-12.35c-4.532-4.123-9.069-8.238-13.568-12.396c-8.909-8.233-17.815-16.47-26.676-24.754
		c-3.761-3.517-7.386-7.179-11.107-10.737c-5.435-5.197-10.902-10.361-17.139-16.284c1.927-0.177,3.027-0.358,4.129-0.366
		c6.54-0.046,13.079-0.049,19.619-0.075c1.751-0.007,3.51-0.167,5.251-0.048c3.473,0.237,6.936,0.89,10.404,0.9
		c29.581,0.086,59.163,0.244,88.74-0.079c5.638-0.061,9.113,2.429,12.522,6.013c6.014,6.318,12.039,12.629,18.035,18.965
		c1.873,1.979,3.568,4.135,5.522,6.027c7.035,6.812,14.124,13.57,21.245,20.293c1.765,1.667,3.721,3.132,5.604,4.673
		c7.76,6.354,16.017,12.011,24.894,16.646c4.019,2.098,8.536,3.227,12.776,4.924c8.568,3.432,17.447,2.778,26.204,1.577
		c6.287-0.863,12.357-2.865,17.869-6.41c4.882-3.141,10.525-5.203,15.086-8.712c8.206-6.313,15.864-13.338,23.729-20.093
		c3.091-2.653,6.176-5.317,9.154-8.094c1.979-1.846,3.756-3.91,5.642-5.859c8.168-8.44,16.311-16.906,24.534-25.293
		c2.837-2.893,5.911-4.655,10.484-4.631c40.318,0.213,80.638,0.099,120.957,0.082c1.791-0.001,3.583,0,5.375,0
		C549.865,391.51,550.062,391.954,550.259,392.397z"/>
	<path fill-rule="evenodd" d="M288.378,334.386c1.786-0.99,3.524-2.079,5.364-2.955c10.705-5.095,21.432-10.142,32.154-15.2
		c2.374-1.12,3.144-0.697,2.718,1.894c-1.151,7.009-2.483,13.987-3.781,20.972c-0.979,5.265-2.037,10.516-3.02,15.78
		c-2.162,11.578-4.325,23.155-6.435,34.742c-1.169,6.422-2.237,12.863-3.337,19.298c-0.672,3.937-1.653,4.885-5.534,4.932
		c-5.562,0.067-11.125,0.071-16.687,0.045c-2.974-0.014-3.714-0.766-3.105-3.789c0.611-3.034,1.688-5.973,2.529-8.962
		c3.637-12.929,7.297-25.852,10.878-38.796c1.944-7.027,3.823-14.076,5.575-21.153c0.865-3.491-0.405-5.233-4.015-5.494
		c-3.003-0.218-6.039,0.041-9.06,0.02c-1.324-0.01-2.647-0.19-3.971-0.293C288.562,335.079,288.47,334.732,288.378,334.386z"/>
	<path fill-rule="evenodd" d="M314.798,113.326c2.23,0,4.464-0.057,6.692,0.019c1.621,0.055,2.859,0.692,2.75,2.623
		c-0.108,1.927-1.346,2.327-3.014,2.283c-4.17-0.111-8.341-0.175-12.512-0.224c-1.936-0.022-3.296-0.732-3.171-2.862
		c0.128-2.19,1.813-2.14,3.439-2.107c1.937,0.038,3.876,0.009,5.813,0.009C314.797,113.153,314.797,113.24,314.798,113.326z"/>
	<path fill-rule="evenodd" d="M270.091,120.501c-1.978-0.14-4.077,0.104-3.853-2.569c0.062-0.739,0.875-1.918,1.496-2.028
		c4.404-0.773,8.841-1.383,13.283-1.906c1.663-0.196,3.488,0.356,3.27,2.321c-0.104,0.93-1.754,2.172-2.887,2.414
		C277.597,119.542,273.711,119.965,270.091,120.501z"/>
	<path fill-rule="evenodd" d="M395.502,623.936c0.771,0.726,2.135,1.439,2.123,2.131c-0.016,1.009-0.801,2.587-1.641,2.902
		c-4.186,1.57-8.468,2.91-12.787,4.067c-0.81,0.217-2.259-0.535-2.811-1.284c-0.346-0.468,0.399-1.779,0.732-2.684
		c0.082-0.223,0.439-0.398,0.707-0.49C386.226,627.073,390.63,625.586,395.502,623.936z"/>
	<path fill-rule="evenodd" d="M47.53,317.75c1.277-4.694,2.271-8.854,3.628-12.892c0.255-0.76,1.981-1.438,2.982-1.377
		c0.579,0.035,1.651,1.739,1.498,2.486c-0.917,4.475-2.027,8.92-3.334,13.297c-0.221,0.74-2.227,1.753-2.526,1.518
		C48.78,319.999,48.182,318.703,47.53,317.75z"/>
	<path fill-rule="evenodd" d="M442.171,606.978c-0.766-0.8-1.959-1.49-2.096-2.35c-0.133-0.829,0.588-2.172,1.345-2.698
		c3.161-2.202,6.51-4.132,9.723-6.265c1.479-0.981,3.08-1.938,4.322-0.21c1.332,1.852,0.417,3.309-1.554,4.448
		c-3.084,1.785-5.991,3.871-9.002,5.785C444.2,606.141,443.379,606.417,442.171,606.978z"/>
	<path fill-rule="evenodd" d="M348.11,115.923c5.276,0.936,9.518,1.551,13.668,2.548c0.74,0.178,1.5,1.939,1.484,2.958
		c-0.009,0.588-1.632,1.738-2.39,1.633c-4.24-0.587-8.475-1.335-12.626-2.367c-1.078-0.268-1.854-1.748-2.771-2.671
		C346.569,117.153,347.662,116.281,348.11,115.923z"/>
	<path fill-rule="evenodd" d="M571.848,393.737c0,2.143,0.257,4.332-0.112,6.409c-0.175,0.983-1.547,1.754-2.376,2.621
		c-0.779-0.836-2.226-1.672-2.226-2.507c0.002-4.47,0.244-8.952,0.712-13.398c0.088-0.831,1.582-1.513,2.427-2.265
		c0.675,0.904,1.791,1.745,1.931,2.725c0.298,2.1,0.091,4.272,0.091,6.414C572.146,393.737,571.997,393.737,571.848,393.737z"/>
	<path fill-rule="evenodd" d="M149.057,164.983c0.582,0.533,1.424,0.987,1.733,1.679c0.295,0.66,0.361,1.866-0.044,2.311
		c-1.09,1.196-2.488,2.109-3.759,3.141c-2.189,1.78-4.346,3.6-6.571,5.333c-1.337,1.042-3.095,1.637-4.013-0.09
		c-0.441-0.832,0.201-2.859,1.022-3.627c2.688-2.51,5.661-4.719,8.574-6.979C146.835,166.103,147.841,165.676,149.057,164.983z"/>
	<path fill-rule="evenodd" d="M41.541,353.27c0.512-2.959,1.019-5.918,1.54-8.876c0.292-1.665,1.097-2.713,2.984-2.305
		c1.787,0.388,2.226,1.496,1.958,3.252c-0.584,3.833-0.868,7.716-1.577,11.523c-0.193,1.04-1.368,2.552-2.251,2.672
		c-1.815,0.247-2.712-1.212-2.676-3.027c0.021-1.065,0.18-2.129,0.277-3.194C41.71,353.301,41.625,353.286,41.541,353.27z"/>
	<path fill-rule="evenodd" d="M569.089,334.763c-0.455,0.527-1.433,1.66-2.41,2.792c-0.824-1.027-2.12-1.946-2.389-3.103
		c-0.942-4.055-1.655-8.177-2.15-12.31c-0.101-0.839,1.128-1.836,1.743-2.761c0.947,0.679,2.524,1.206,2.73,2.063
		C567.582,325.482,568.175,329.611,569.089,334.763z"/>
	<path fill-rule="evenodd" d="M243.305,120.246c0.679,0.775,1.95,1.586,1.991,2.455c0.04,0.847-1.003,2.235-1.874,2.55
		c-3.981,1.444-8.041,2.701-12.141,3.759c-0.793,0.205-2.302-0.542-2.728-1.282c-0.385-0.669,0.098-2.005,0.515-2.9
		c0.236-0.507,1.069-0.854,1.701-1.039C234.755,122.624,238.759,121.522,243.305,120.246z"/>
	<path fill-rule="evenodd" d="M568.557,425.764c-1.105,4.938-1.946,9.326-3.154,13.609c-0.273,0.973-1.82,1.586-2.782,2.364
		c-0.623-1.194-1.911-2.485-1.751-3.563c0.611-4.108,1.546-8.189,2.7-12.183c0.271-0.936,1.807-1.821,2.909-2.069
		C567.03,423.799,567.917,425.162,568.557,425.764z"/>
	<path fill-rule="evenodd" d="M548.762,488.289c-0.451,1.262-0.647,2.018-0.981,2.707c-1.313,2.712-2.602,5.44-4.043,8.085
		c-0.638,1.171-1.464,2.358-2.504,3.14c-0.561,0.421-1.916,0.273-2.603-0.137c-0.473-0.283-0.787-1.619-0.532-2.205
		c1.862-4.274,3.81-8.518,5.943-12.661c0.337-0.654,1.882-1.207,2.635-0.991C547.54,486.475,548.143,487.63,548.762,488.289z"/>
	<path fill-rule="evenodd" d="M104.237,212.986c-0.358,0.868-0.479,1.471-0.812,1.916c-2.484,3.332-4.978,6.656-7.539,9.928
		c-0.905,1.155-2.032,2.439-3.587,0.94c-1.185-1.143-1.701-2.345-0.299-4.008c2.619-3.104,4.85-6.535,7.46-9.647
		c0.634-0.756,2.13-1.104,3.203-1.054C103.239,211.089,103.756,212.359,104.237,212.986z"/>
	<path fill-rule="evenodd" d="M346.147,641.266c-0.485,0.043-1.082,0.286-1.434,0.09c-0.971-0.546-1.84-1.275-2.749-1.933
		c0.735-0.973,1.315-2.585,2.232-2.808c4.043-0.979,8.166-1.715,12.301-2.165c0.932-0.101,2.026,1.3,3.046,2.009
		c-0.66,0.885-1.16,2.311-2.007,2.562c-3.705,1.094-7.51,1.847-11.278,2.724C346.222,641.585,346.185,641.426,346.147,641.266z"/>
	<path fill-rule="evenodd" d="M170.257,155.596c-0.484-0.407-1.642-0.912-1.731-1.563c-0.134-0.984,0.145-2.582,0.828-3.027
		c3.655-2.379,7.423-4.619,11.322-6.565c0.789-0.394,2.452,0.487,3.416,1.188c0.322,0.234,0.037,2.23-0.51,2.583
		c-3.831,2.469-7.798,4.725-11.737,7.023C171.524,155.421,171.092,155.414,170.257,155.596z"/>
	<path fill-rule="evenodd" d="M487.36,573.013c-0.308,0.392-0.694,1.064-1.243,1.561c-3.095,2.794-6.126,5.678-9.415,8.226
		c-0.896,0.694-2.61,0.334-3.949,0.458c0.157-1.298-0.175-3.111,0.557-3.805c3.226-3.06,6.705-5.861,10.203-8.616
		C484.897,569.745,487.303,571.021,487.36,573.013z"/>
	<path fill-rule="evenodd" d="M157.147,597.855c-2.035-1.247-3.879-2.275-5.611-3.465c-2.08-1.428-4.101-2.947-6.077-4.516
		c-1.258-0.999-2.533-2.314-1.153-3.912c1.254-1.452,2.812-1.241,4.389,0.003c3.047,2.404,6.293,4.56,9.304,7.007
		c0.748,0.607,1.237,1.938,1.223,2.927C159.213,596.502,158.012,597.086,157.147,597.855z"/>
	<path fill-rule="evenodd" d="M193.896,614.565c-0.808,1.111-1.281,2.168-2.095,2.734c-0.523,0.364-1.679,0.259-2.327-0.072
		c-3.797-1.944-7.496-4.077-11.294-6.017c-1.527-0.779-2.142-1.581-1.092-3.157c0.855-1.283,1.562-2.447,3.46-1.329
		c3.765,2.22,7.637,4.257,11.448,6.401C192.618,613.476,193.147,613.99,193.896,614.565z"/>
	<path fill-rule="evenodd" d="M285.078,638.671c1.943,0,3.888,0.031,5.83-0.009c1.916-0.04,2.972,0.855,2.973,2.762
		c0,1.965-1.249,2.348-2.964,2.227c-3.492-0.245-6.992-0.365-10.487-0.582c-0.766-0.047-1.765-0.035-2.227-0.488
		c-0.863-0.847-1.41-2.014-2.089-3.047c0.951-0.479,1.884-1.313,2.855-1.359c2.025-0.097,4.069,0.224,6.104,0.373
		C285.074,638.589,285.076,638.63,285.078,638.671z"/>
	<path fill-rule="evenodd" d="M47.678,414.372c0.432,2.378,0.881,4.753,1.29,7.135c0.279,1.626,0.284,3.519-1.686,3.672
		c-0.917,0.071-2.634-1.445-2.843-2.476c-0.868-4.27-1.406-8.619-1.783-12.964c-0.063-0.727,1.362-2.287,1.938-2.212
		c1.091,0.141,2.583,0.974,2.967,1.907c0.598,1.453,0.411,3.23,0.557,4.87C47.971,414.327,47.824,414.35,47.678,414.372z"/>
	<path fill-rule="evenodd" d="M78,506.286c0.715,0.688,1.835,1.446,2.525,2.489c1.977,2.987,3.727,6.123,5.671,9.132
		c0.986,1.526,1.199,3.005-0.272,4.113c-0.598,0.45-2.378,0.455-2.654,0.032c-2.688-4.123-5.258-8.33-7.667-12.623
		C74.67,507.769,75.6,506.686,78,506.286z"/>
	<path fill-rule="evenodd" d="M522.198,223.892c0.305,0.237,1.041,0.583,1.447,1.162c2.667,3.801,5.342,7.603,7.783,11.548
		c0.328,0.53-0.4,2.171-1.095,2.729c-0.548,0.439-2.234,0.377-2.657-0.115c-1.504-1.747-2.718-3.75-3.977-5.697
		c-1.363-2.109-2.794-4.193-3.932-6.422C518.93,225.45,520.077,223.829,522.198,223.892z"/>
	<path fill-rule="evenodd" d="M252.92,639.024c-4.915-1.217-9.182-2.121-13.319-3.432c-0.799-0.253-1.094-2.096-1.621-3.204
		c1.004-0.411,2.093-1.308,2.999-1.15c3.996,0.697,7.973,1.578,11.875,2.68c0.895,0.253,2.09,1.701,2.026,2.511
		C254.802,637.403,253.528,638.283,252.92,639.024z"/>
	<path fill-rule="evenodd" d="M559.895,297.15c-0.508,0.523-1.048,1.558-1.729,1.661c-0.879,0.133-2.486-0.232-2.716-0.808
		c-1.803-4.51-3.411-9.102-4.886-13.729c-0.156-0.49,0.971-1.985,1.439-1.956c1.078,0.064,2.698,0.504,3.067,1.281
		c1.245,2.619,2.047,5.451,3.006,8.206C558.646,293.439,559.192,295.083,559.895,297.15z"/>
	<path fill-rule="evenodd" d="M81.8,245.254c-0.688,1.504-1.174,2.751-1.808,3.917c-1.573,2.898-3.051,5.871-4.917,8.572
		c-0.627,0.907-2.312,1.083-3.514,1.593c-0.189-1.201-0.897-2.639-0.476-3.562c1.729-3.789,3.685-7.492,5.834-11.061
		c0.519-0.861,2.063-1.321,3.203-1.48C80.557,243.173,81.182,244.474,81.8,245.254z"/>
	<path fill-rule="evenodd" d="M422.914,144.76c-3.222-1.448-6.319-2.833-9.411-4.234c-0.884-0.4-1.713-0.956-2.629-1.24
		c-1.862-0.578-2.833-1.86-1.752-3.46c0.574-0.851,2.577-1.551,3.512-1.198c3.522,1.329,6.882,3.098,10.276,4.752
		c0.599,0.292,1.247,0.727,1.574,1.273c0.459,0.768,1.065,1.861,0.82,2.52C425.05,143.854,423.852,144.184,422.914,144.76z"/>
	<path fill-rule="evenodd" d="M529.623,522.459c-0.266,0.792-0.324,1.313-0.586,1.694c-2.566,3.754-5.102,7.533-7.821,11.174
		c-0.437,0.585-2.365,0.939-2.533,0.688c-0.673-1.012-1.637-2.762-1.215-3.417c2.562-3.983,5.424-7.779,8.33-11.525
		c0.366-0.473,1.689-0.574,2.372-0.319C528.816,520.995,529.204,521.932,529.623,522.459z"/>
	<path fill-rule="evenodd" d="M496.488,193.412c1.079,0.689,2.09,1.109,2.796,1.829c2.308,2.354,4.544,4.782,6.723,7.257
		c0.689,0.783,1.419,1.755,1.563,2.725c0.133,0.895-0.224,2.295-0.87,2.743c-0.567,0.394-2.173,0.114-2.739-0.45
		c-3.016-3.01-5.914-6.147-8.694-9.376c-0.595-0.691-0.811-1.992-0.668-2.931C494.694,194.578,495.73,194.091,496.488,193.412z"/>
	<path fill-rule="evenodd" d="M99.791,538.743c0.769,0.506,1.443,0.763,1.846,1.246c2.74,3.292,5.513,6.564,8.048,10.012
		c0.521,0.707,0.534,2.582-0.007,3.107c-1.034,1.004-2.436,1.273-3.718-0.361c-2.525-3.22-5.355-6.2-7.917-9.392
		c-0.588-0.733-1.054-2.1-0.76-2.856C97.584,539.721,98.886,539.33,99.791,538.743z"/>
	<path fill-rule="evenodd" d="M459.577,162.044c-0.61,0.947-0.922,2.01-1.558,2.266c-0.769,0.308-1.995,0.234-2.704-0.197
		c-3.399-2.07-6.681-4.333-10.024-6.495c-1.701-1.1-2.126-2.583-1.078-4.239c1.148-1.814,2.461-0.795,3.723,0.053
		c3.22,2.167,6.487,4.263,9.68,6.468C458.348,160.405,458.854,161.236,459.577,162.044z"/>
	<path fill-rule="evenodd" d="M49.939,448.062c0.444-0.478,1.046-1.646,1.626-1.635c1.067,0.021,2.809,0.483,3.069,1.199
		c1.588,4.357,2.928,8.814,4.157,13.29c0.463,1.688-1.231,2.808-3.049,2.086c-0.659-0.261-1.456-0.86-1.659-1.479
		C52.668,457.209,51.394,452.85,49.939,448.062z"/>
	<path fill-rule="evenodd" d="M572.262,361.526c-0.854,0.629-1.847,1.887-2.532,1.739c-1.044-0.226-1.877-1.428-2.799-2.215
		c0.845-0.855,1.582-2.188,2.568-2.411c0.769-0.172,1.848,1.04,2.788,1.637C572.278,360.692,572.271,361.109,572.262,361.526z"/>
	<path fill-rule="evenodd" d="M125.974,573.893c-0.989-1.502-2.217-2.563-2.216-3.621c0.001-0.847,1.876-2.548,2.261-2.378
		c1.18,0.522,2.55,1.633,2.837,2.77C129.026,571.335,127.29,572.489,125.974,573.893z"/>
	<path fill-rule="evenodd" d="M218.678,625.479c-1.666,1.148-2.666,2.361-3.399,2.218c-1.044-0.205-2.57-1.354-2.637-2.199
		c-0.071-0.88,1.375-2.666,2.108-2.64C215.832,622.896,216.871,624.186,218.678,625.479z"/>
	<path fill-rule="evenodd" d="M318.135,644.907c-1.232-1.367-2.73-2.408-2.568-2.979c0.327-1.154,1.555-2.053,2.411-3.057
		c0.817,0.896,2.114,1.705,2.298,2.716C320.417,642.37,319.165,643.405,318.135,644.907z"/>
	<path fill-rule="evenodd" d="M209.232,135.161c-1.797,1.229-2.774,2.35-3.853,2.458c-0.619,0.062-2.032-1.595-1.946-2.348
		c0.1-0.872,1.38-2.117,2.28-2.241C206.543,132.916,207.547,134.074,209.232,135.161z"/>
	<path fill-rule="evenodd" d="M118.971,190.461c1.196,1.268,2.773,2.359,2.603,2.876c-0.395,1.203-1.633,2.129-2.529,3.167
		c-0.857-0.957-2.168-1.813-2.408-2.906C116.48,192.889,117.888,191.837,118.971,190.461z"/>
	<path fill-rule="evenodd" d="M62.821,484.229c1.308-0.302,2.651-0.913,3.911-0.775c0.657,0.071,1.684,1.518,1.609,2.248
		c-0.082,0.805-1.471,2.242-1.876,2.112c-1.373-0.441-2.563-1.453-3.824-2.246C62.701,485.121,62.761,484.676,62.821,484.229z"/>
	<path fill-rule="evenodd" d="M481.098,177.991c-1.685,1.312-2.595,2.561-3.543,2.59c-0.771,0.023-1.587-1.414-2.383-2.203
		c0.853-0.848,1.58-2.036,2.604-2.408C478.347,175.762,479.411,176.913,481.098,177.991z"/>
	<path fill-rule="evenodd" d="M43.697,379.975c1.062,1.886,2.146,2.948,2.037,3.868c-0.102,0.856-1.475,1.562-2.288,2.333
		c-0.771-0.915-1.986-1.754-2.162-2.771C41.158,382.672,42.418,381.7,43.697,379.975z"/>
	<path fill-rule="evenodd" d="M545.521,260.329c-1.501,0.997-2.465,2.143-3.349,2.084c-0.914-0.059-1.751-1.289-2.621-2.007
		c0.955-0.949,1.779-2.205,2.931-2.694C542.927,257.523,544.109,259.069,545.521,260.329z"/>
	<path fill-rule="evenodd" d="M504.011,551.185c0.463,1.275,1.223,2.544,1.256,3.83c0.015,0.58-1.655,1.844-2.147,1.664
		c-1.055-0.386-2.612-1.561-2.56-2.313c0.079-1.124,1.37-2.163,2.146-3.238C503.141,551.146,503.575,551.165,504.011,551.185z"/>
	<path fill-rule="evenodd" d="M65.476,280.815c-1.675,1.193-2.605,2.374-3.435,2.307c-0.909-0.073-2.424-1.313-2.409-2.018
		c0.021-0.938,1.195-2.515,1.999-2.598C62.566,278.411,63.637,279.633,65.476,280.815z"/>
	<path fill-rule="evenodd" d="M419.219,619.958c-1.121-1.549-2.46-2.667-2.258-3.282c0.352-1.074,1.649-1.84,2.552-2.734
		c0.743,0.911,1.985,1.775,2.076,2.747C421.664,617.499,420.39,618.436,419.219,619.958z"/>
	<path fill-rule="evenodd" d="M559.208,463.986c-1.444,1.328-2.47,2.861-3.093,2.713c-1.05-0.252-1.846-1.569-2.748-2.438
		c0.772-0.772,1.491-2.087,2.332-2.171C556.603,462,557.62,463.065,559.208,463.986z"/>
	<path fill-rule="evenodd" d="M389.788,127.619c-1.482,1.066-2.454,2.271-3.104,2.118c-1.079-0.256-1.951-1.385-2.911-2.146
		c0.894-0.819,1.703-2.126,2.707-2.297C387.243,125.163,388.254,126.476,389.788,127.619z"/>
</g>
</svg>
